<svg width="376" height="273" viewBox="0 0 376 273" fill="none" xmlns="http://www.w3.org/2000/svg">
<path d="M304.125 43.4376C305.758 44.9495 307.383 46.4706 309 48.0001C309.895 48.8303 310.789 49.6605 311.711 50.5158C318.849 57.3536 324.636 64.719 330 73.0001C330.469 73.7067 330.937 74.4133 331.42 75.1413C335.948 82.27 338.926 89.879 341.875 97.7501C342.396 99.119 342.917 100.488 343.438 101.856C356 134.899 356 134.899 356 137C350.72 137 345.44 137 340 137C340.681 139.815 340.681 139.815 341.375 142.688C342.935 149.416 344.049 156.162 345 163C346.918 162.567 346.918 162.567 348.875 162.125C351.352 162.106 351.352 162.106 354 163C360.274 169.635 364.825 177.929 369 186C362.73 186.33 356.46 186.66 350 187C350.505 189.648 351.011 192.296 351.531 195.024C352.018 197.582 352.504 200.14 352.991 202.698C353.33 204.479 353.669 206.26 354.009 208.041C354.497 210.597 354.983 213.154 355.469 215.711C355.622 216.51 355.775 217.309 355.933 218.132C357 223.772 357 223.772 357 226C358.128 226.113 358.128 226.113 359.278 226.227C362.737 227.21 363.532 228.436 365.551 231.367C366.474 232.696 366.474 232.696 367.416 234.051C368.355 235.449 368.355 235.449 369.312 236.875C369.958 237.799 370.603 238.724 371.268 239.676C376 246.577 376 246.577 376 250C374.25 250.027 372.5 250.047 370.75 250.063C369.288 250.08 369.288 250.08 367.797 250.098C365.342 250.012 363.338 249.707 361 249C361.193 249.811 361.387 250.622 361.586 251.457C363.268 258.612 364.745 265.758 366 273C360.72 273 355.44 273 350 273C347.519 265.557 346.363 257.726 345 250C314.805 249.505 314.805 249.505 284 249C284 256.92 284 264.84 284 273C278.72 273 273.44 273 268 273C267.877 264.878 268.416 257.181 269 249C217.85 249.33 166.7 249.66 114 250C113.67 257.59 113.34 265.18 113 273C107.72 273 102.44 273 97 273C96.67 265.41 96.34 257.82 96 250C75.21 250 54.42 250 33 250C31.35 257.59 29.7 265.18 28 273C22.39 273 16.78 273 11 273C12.98 262.11 12.98 262.11 15 251C10.05 250.67 5.1 250.34 0 250C0.932674 246.269 1.77767 244.558 3.90625 241.488C4.48504 240.649 5.06383 239.809 5.66016 238.943C6.2673 238.075 6.87445 237.207 7.5 236.313C8.41072 234.993 8.41072 234.993 9.33984 233.647C13.8103 227.19 13.8103 227.19 15 226C16.6662 225.959 18.3339 225.957 20 226C20.141 225.21 20.282 224.419 20.4272 223.604C21.0763 219.965 21.7257 216.327 22.375 212.688C22.5967 211.444 22.8184 210.201 23.0469 208.92C24.3514 201.611 25.6675 194.304 27 187C17.1 186.505 17.1 186.505 7 186C9.29793 181.404 11.9597 177.183 14.75 172.875C15.263 172.051 15.7761 171.228 16.3047 170.379C20.195 164.407 20.195 164.407 24.0781 162.445C26.7845 162.033 29.2686 161.839 32 162C32.1818 160.784 32.1818 160.784 32.3672 159.543C33.4579 152.336 34.6625 145.165 36 138C31.05 137.67 26.1 137.34 21 137C39.1747 82.9698 39.1747 82.9698 51 67.0001C51.7038 66.0398 52.4077 65.0794 53.1328 64.09C79.9901 29.6512 118.831 11.1772 161 3.00014C162.903 2.62889 162.903 2.62889 164.844 2.25014C213.353 -5.61615 267.527 11.1989 304.125 43.4376ZM154.719 28.5392C145.338 40.6857 142.136 52.8706 143 68.0001C144.992 81.8111 151.991 93.5901 162.875 102.25C173.819 110.049 185.885 111.288 199 110C211.066 107.2 220.783 99.96 228 90.0001C235.793 77.294 238.05 63.4016 234.875 48.8126C231.096 35.6566 223.115 25.5142 211.496 18.2853C191.986 8.24021 169.464 12.1275 154.719 28.5392ZM53 137C50.1402 149.915 50.1402 149.915 49 163C64.84 163 80.68 163 97 163C97 154.42 97 145.84 97 137C82.48 137 67.96 137 53 137ZM113 137C113 145.58 113 154.16 113 163C164.48 163 215.96 163 269 163C269 154.42 269 145.84 269 137C217.52 137 166.04 137 113 137ZM314.371 136.219C313.507 136.241 312.643 136.263 311.752 136.286C308.981 136.357 306.209 136.429 303.438 136.5C301.563 136.548 299.689 136.597 297.814 136.645C293.21 136.763 288.605 136.882 284 137C284 145.58 284 154.16 284 163C298.85 163 313.7 163 329 163C327.414 152.523 327.414 152.523 325.375 142.188C324.984 140.415 324.984 140.415 324.586 138.606C324.393 137.746 324.199 136.886 324 136C320.791 136 317.579 136.136 314.371 136.219ZM44 186C39.3414 205.455 39.3414 205.455 37 226C56.8 226 76.6 226 97 226C97 212.8 97 199.6 97 186C79.51 186 62.02 186 44 186ZM113 186C113 199.2 113 212.4 113 226C164.48 226 215.96 226 269 226C269 212.8 269 199.6 269 186C217.52 186 166.04 186 113 186ZM284 186C284 199.2 284 212.4 284 226C302.81 226 321.62 226 341 226C339.866 219.586 338.731 213.171 337.562 206.563C337.206 204.536 336.85 202.509 336.483 200.42C336.198 198.823 335.914 197.226 335.629 195.629C335.41 194.374 335.41 194.374 335.186 193.093C334.8 189.228 334.8 189.228 333 186C331.465 185.907 329.926 185.883 328.388 185.887C327.407 185.887 326.427 185.887 325.416 185.887C324.349 185.892 323.283 185.897 322.184 185.902C321.097 185.904 320.011 185.905 318.892 185.907C315.407 185.912 311.922 185.925 308.438 185.938C306.081 185.943 303.725 185.947 301.369 185.951C295.579 185.962 289.79 185.981 284 186Z" fill="#060404"/>
</svg>
