<svg width="1933" height="2085" viewBox="0 0 1933 2085" fill="none" xmlns="http://www.w3.org/2000/svg">
<path d="M880 246C956.56 246 1033.12 246 1112 246C1112 265.14 1112 284.28 1112 304C1129.82 304 1147.64 304 1166 304C1166 342.28 1166 380.56 1166 420C1204.28 420 1242.56 420 1282 420C1282 437.82 1282 455.64 1282 474C1299.82 474 1317.64 474 1336 474C1336 494.46 1336 514.92 1336 536C1318.18 536 1300.36 536 1282 536C1282 554.48 1282 572.96 1282 592C1262.86 592 1243.72 592 1224 592C1224 609.82 1224 627.64 1224 646C1243.8 646 1263.6 646 1284 646C1284 664.48 1284 682.96 1284 702C1300.5 702 1317 702 1334 702C1334 740.94 1334 779.88 1334 820C1354.46 820 1374.92 820 1396 820C1396 840.46 1396 860.92 1396 882C1358.38 882 1320.76 882 1282 882C1282 900.48 1282 918.96 1282 938C1243.72 938 1205.44 938 1166 938C1166 956.48 1166 974.96 1166 994C1146.86 994 1127.72 994 1108 994C1108 1011.82 1108 1029.64 1108 1048C1127.8 1048 1147.6 1048 1168 1048C1168 1064.5 1168 1081 1168 1098C1185.82 1098 1203.64 1098 1222 1098C1222 1081.5 1222 1065 1222 1048C1242.46 1048 1262.92 1048 1284 1048C1284 1065.16 1284 1082.32 1284 1100C1300.5 1100 1317 1100 1334 1100C1334 1141.58 1334 1183.16 1334 1226C1316.84 1226 1299.68 1226 1282 1226C1282 1299.26 1282 1372.52 1282 1448C1300.48 1448 1318.96 1448 1338 1448C1338 1466.48 1338 1484.96 1338 1504C1355.16 1504 1372.32 1504 1390 1504C1390 1544.26 1390 1584.52 1390 1626C1372.84 1626 1355.68 1626 1338 1626C1338 1644.48 1338 1662.96 1338 1682C1320.18 1682 1302.36 1682 1284 1682C1284 1700.48 1284 1718.96 1284 1738C1265.52 1738 1247.04 1738 1228 1738C1228 1755.16 1228 1772.32 1228 1790C1185.1 1790 1142.2 1790 1098 1790C1098 1772.18 1098 1754.36 1098 1736C1082.16 1736 1066.32 1736 1050 1736C1050 1698.38 1050 1660.76 1050 1622C1030.86 1622 1011.72 1622 992 1622C992 1602.86 992 1583.72 992 1564C972.86 1564 953.72 1564 934 1564C934 1583.14 934 1602.28 934 1622C916.18 1622 898.36 1622 880 1622C880 1640.48 880 1658.96 880 1678C897.82 1678 915.64 1678 934 1678C934 1714.96 934 1751.92 934 1790C839.62 1790 745.24 1790 648 1790C648 1771.52 648 1753.04 648 1734C628.86 1734 609.72 1734 590 1734C590 1715.52 590 1697.04 590 1678C573.5 1678 557 1678 540 1678C540 1620.58 540 1563.16 540 1504C556.5 1504 573 1504 590 1504C590 1486.84 590 1469.68 590 1452C573.5 1452 557 1452 540 1452C540 1412.4 540 1372.8 540 1332C520.86 1332 501.72 1332 482 1332C482 1258.74 482 1185.48 482 1110C501.14 1110 520.28 1110 540 1110C540 1070.4 540 1030.8 540 990C556.5 990 573 990 590 990C590 970.86 590 951.72 590 932C609.14 932 628.28 932 648 932C648 915.5 648 899 648 882C629.52 882 611.04 882 592 882C592 864.18 592 846.36 592 828C574.18 828 556.36 828 538 828C538 750.12 538 672.24 538 592C556.48 592 574.96 592 594 592C594 555.04 594 518.08 594 480C610.5 480 627 480 644 480C644 459.54 644 439.08 644 418C663.14 418 682.28 418 702 418C702 398.86 702 379.72 702 360C721.14 360 740.28 360 760 360C760 340.86 760 321.72 760 302C799.6 302 839.2 302 880 302C880 283.52 880 265.04 880 246ZM882 312C882 329.16 882 346.32 882 364C843.06 364 804.12 364 764 364C764 383.14 764 402.28 764 422C744.86 422 725.72 422 706 422C706 441.8 706 461.6 706 482C687.52 482 669.04 482 650 482C650 518.3 650 554.6 650 592C686.96 592 723.92 592 762 592C762 572.86 762 553.72 762 534C781.8 534 801.6 534 822 534C822 514.2 822 494.4 822 474C860.94 474 899.88 474 940 474C940 456.18 940 438.36 940 420C995.44 420 1050.88 420 1108 420C1108 384.36 1108 348.72 1108 312C1033.42 312 958.84 312 882 312ZM876 536C876 555.8 876 575.6 876 596C858.84 596 841.68 596 824 596C824 633.62 824 671.24 824 710C841.82 710 859.64 710 878 710C878 730.46 878 750.92 878 772C860.18 772 842.36 772 824 772C824 790.48 824 808.96 824 828C802.88 828 781.76 828 760 828C760 810.18 760 792.36 760 774C742.84 774 725.68 774 708 774C708 735.06 708 696.12 708 656C672.36 656 636.72 656 600 656C600 710.12 600 764.24 600 820C617.82 820 635.64 820 654 820C654 839.14 654 858.28 654 878C690.3 878 726.6 878 764 878C764 895.82 764 913.64 764 932C782.48 932 800.96 932 820 932C820 951.14 820 970.28 820 990C913.72 990 1007.44 990 1104 990C1104 972.84 1104 955.68 1104 938C1069.02 938 1034.04 938 998 938C998 919.52 998 901.04 998 882C959.72 882 921.44 882 882 882C882 861.54 882 841.08 882 820C900.48 820 918.96 820 938 820C938 802.18 938 784.36 938 766C958.46 766 978.92 766 1000 766C1000 783.82 1000 801.64 1000 820C1034.98 820 1069.96 820 1106 820C1106 838.48 1106 856.96 1106 876C1144.28 876 1182.56 876 1222 876C1222 857.52 1222 839.04 1222 820C1240.48 820 1258.96 820 1278 820C1278 782.38 1278 744.76 1278 706C1221.24 706 1164.48 706 1106 706C1106 667.72 1106 629.44 1106 590C1123.82 590 1141.64 590 1160 590C1160 572.18 1160 554.36 1160 536C1066.28 536 972.56 536 876 536ZM594 994C594 1034.26 594 1074.52 594 1116C576.18 1116 558.36 1116 540 1116C540 1169.46 540 1222.92 540 1278C557.82 1278 575.64 1278 594 1278C594 1297.8 594 1317.6 594 1338C630.96 1338 667.92 1338 706 1338C706 1319.52 706 1301.04 706 1282C686.2 1282 666.4 1282 646 1282C646 1242.4 646 1202.8 646 1162C665.14 1162 684.28 1162 704 1162C704 1143.52 704 1125.04 704 1106C722.48 1106 740.96 1106 760 1106C760 1069.04 760 1032.08 760 994C705.22 994 650.44 994 594 994ZM940 1056C940 1072.5 940 1089 940 1106C959.8 1106 979.6 1106 1000 1106C1000 1124.48 1000 1142.96 1000 1162C1017.82 1162 1035.64 1162 1054 1162C1054 1200.28 1054 1238.56 1054 1278C1088.32 1278 1122.64 1278 1158 1278C1158 1239.06 1158 1200.12 1158 1160C1140.84 1160 1123.68 1160 1106 1160C1106 1143.5 1106 1127 1106 1110C1087.52 1110 1069.04 1110 1050 1110C1050 1092.18 1050 1074.36 1050 1056C1013.7 1056 977.4 1056 940 1056ZM1226 1110C1226 1146.3 1226 1182.6 1226 1220C1243.16 1220 1260.32 1220 1278 1220C1278 1183.7 1278 1147.4 1278 1110C1260.84 1110 1243.68 1110 1226 1110ZM764 1112C764 1129.16 764 1146.32 764 1164C744.86 1164 725.72 1164 706 1164C706 1199.64 706 1235.28 706 1272C725.14 1272 744.28 1272 764 1272C764 1293.78 764 1315.56 764 1338C821.42 1338 878.84 1338 938 1338C938 1317.54 938 1297.08 938 1276C957.14 1276 976.28 1276 996 1276C996 1240.36 996 1204.72 996 1168C976.86 1168 957.72 1168 938 1168C938 1149.52 938 1131.04 938 1112C880.58 1112 823.16 1112 764 1112ZM998 1282C998 1300.48 998 1318.96 998 1338C978.86 1338 959.72 1338 940 1338C940 1355.82 940 1373.64 940 1392C976.3 1392 1012.6 1392 1050 1392C1050 1355.7 1050 1319.4 1050 1282C1032.84 1282 1015.68 1282 998 1282ZM1160 1286C1160 1320.98 1160 1355.96 1160 1392C1180.46 1392 1200.92 1392 1222 1392C1222 1357.02 1222 1322.04 1222 1286C1201.54 1286 1181.08 1286 1160 1286ZM596 1508C596 1564.1 596 1620.2 596 1678C613.82 1678 631.64 1678 650 1678C650 1696.48 650 1714.96 650 1734C725.9 1734 801.8 1734 880 1734C880 1715.52 880 1697.04 880 1678C823.9 1678 767.8 1678 710 1678C710 1659.52 710 1641.04 710 1622C690.86 1622 671.72 1622 652 1622C652 1584.38 652 1546.76 652 1508C633.52 1508 615.04 1508 596 1508ZM1222 1508C1222 1526.48 1222 1544.96 1222 1564C1202.86 1564 1183.72 1564 1164 1564C1164 1583.14 1164 1602.28 1164 1622C1144.2 1622 1124.4 1622 1104 1622C1104 1658.3 1104 1694.6 1104 1732C1143.6 1732 1183.2 1732 1224 1732C1224 1713.52 1224 1695.04 1224 1676C1241.82 1676 1259.64 1676 1278 1676C1278 1658.18 1278 1640.36 1278 1622C1297.14 1622 1316.28 1622 1336 1622C1336 1584.38 1336 1546.76 1336 1508C1298.38 1508 1260.76 1508 1222 1508Z" fill="#222121"/>
<path d="M990 590C1010.46 590 1030.92 590 1052 590C1052 628.28 1052 666.56 1052 706C1031.54 706 1011.08 706 990 706C990 667.72 990 629.44 990 590Z" fill="#222121"/>
<path d="M704 1106C722.48 1106 740.96 1106 760 1106C760 1106.66 760 1107.32 760 1108C742.18 1108 724.36 1108 706 1108C706 1125.82 706 1143.64 706 1162C724.48 1162 742.96 1162 762 1162C762 1144.84 762 1127.68 762 1110C820.08 1110 878.16 1110 938 1110C938 1110.66 938 1111.32 938 1112C880.58 1112 823.16 1112 764 1112C764 1129.16 764 1146.32 764 1164C744.86 1164 725.72 1164 706 1164C706 1199.64 706 1235.28 706 1272C705.34 1272 704.68 1272 704 1272C704 1236.36 704 1200.72 704 1164C685.52 1164 667.04 1164 648 1164C648 1202.28 648 1240.56 648 1280C667.14 1280 686.28 1280 706 1280C706 1280.66 706 1281.32 706 1282C686.2 1282 666.4 1282 646 1282C646 1242.4 646 1202.8 646 1162C665.14 1162 684.28 1162 704 1162C704 1143.52 704 1125.04 704 1106Z" fill="#616161"/>
</svg>
