<svg width="329" height="371" viewBox="0 0 329 371" fill="none" xmlns="http://www.w3.org/2000/svg">
<path d="M94.9924 -0.796803C97.4625 -0.800857 99.9327 -0.80669 102.403 -0.814198C107.586 -0.823028 112.768 -0.810265 117.951 -0.782154C124.476 -0.748431 130.998 -0.767938 137.522 -0.802792C160.78 -0.908336 183.932 -0.983355 206.945 2.73445C207.703 2.85521 208.461 2.97597 209.242 3.10039C221.252 5.08467 232.137 8.81817 242.5 15.2501C243.127 15.6336 243.754 16.0171 244.399 16.4122C264.438 28.8749 277.842 44.2006 290.293 64.0626C293.065 68.3013 296.352 70.979 300.403 73.9883C307.531 79.5092 314.669 85.8521 320.289 92.919C321.939 95.0097 321.939 95.0097 323.796 96.7175C331.837 105.592 330.233 118.082 330.317 129.309C330.349 131.718 330.382 134.128 330.416 136.538C330.476 141.59 330.505 146.642 330.517 151.696C330.534 156.829 330.61 161.956 330.743 167.088C332.061 218.989 332.061 218.989 314.59 238.106C311.556 241.432 311.556 241.432 311.113 245.714C311.867 248.381 311.867 248.381 313.001 250.764C316.311 258.171 313.263 267.677 311 275C307.415 283.694 302.012 289.841 293.438 293.75C292.55 294.116 291.661 294.482 290.746 294.859C284.745 297.352 280.654 299.956 276.375 304.875C275.679 305.65 275.679 305.65 274.969 306.441C272.862 308.804 270.835 311.209 268.871 313.691C263.406 320.434 255.879 325.549 249.104 330.912C248.474 331.412 247.845 331.911 247.195 332.426C246.345 333.097 246.345 333.097 245.477 333.783C243.862 335.074 243.862 335.074 242 337C242.762 337.932 243.524 338.864 244.309 339.824C249.423 346.121 254.487 352.449 259.188 359.063C259.903 360.064 260.619 361.066 261.356 362.098C263.086 365.151 263.655 367.53 264 371C242.641 373.063 242.641 373.063 236.947 369.837C233.377 366.497 231.261 362.283 229 358C226.933 355.152 225.018 352.835 222 351C214.174 352.125 206.766 354.997 199.313 357.563C196.935 358.381 194.556 359.195 192.176 360.004C191.134 360.363 190.091 360.722 189.017 361.092C182.373 363.092 175.96 363.188 169.074 363.238C168.013 363.246 166.952 363.255 165.859 363.263C163.613 363.277 161.366 363.287 159.119 363.295C156.851 363.307 154.583 363.327 152.315 363.357C138.609 363.536 126.146 363.043 113 359C112.106 358.737 111.212 358.474 110.291 358.202C108.325 357.598 106.379 356.929 104.438 356.25C103.199 355.822 101.96 355.394 100.684 354.953C99.7982 354.639 98.9126 354.324 98.0002 354C97.8777 354.695 97.7553 355.39 97.6291 356.106C96.5212 361.204 94.6813 366.065 93.0002 371C85.4102 371 77.8202 371 70.0002 371C71.2699 364.017 72.5541 357.526 74.6252 350.813C74.8546 350.051 75.0841 349.29 75.3205 348.506C75.875 346.669 76.4368 344.834 77.0002 343C75.9122 342.261 74.8242 341.523 73.7033 340.762C65.457 335.094 57.7383 329.309 50.5158 322.375C48.0433 319.975 48.0433 319.975 45.3713 317.902C41.7489 314.996 38.9456 311.576 36.0002 308C35.2345 307.072 34.4688 306.144 33.6799 305.188C12.5595 278.704 4.11286 250.201 3.5705 216.613C3.53956 215.545 3.50862 214.476 3.47675 213.375C3.45693 212.413 3.43711 211.452 3.41669 210.461C3.26109 207.945 3.26109 207.945 1.49544 206.712C-0.671816 204.231 -0.360878 202.409 -0.340393 199.152C-0.340166 197.951 -0.33994 196.75 -0.339706 195.512C-0.324223 194.215 -0.308739 192.918 -0.292786 191.582C-0.287189 190.241 -0.282919 188.9 -0.279922 187.559C-0.268477 184.033 -0.239013 180.507 -0.205811 176.98C-0.175103 173.381 -0.161416 169.781 -0.146301 166.182C-0.114143 159.121 -0.0629503 152.061 0.000183105 145C1.77897 144.763 1.77897 144.763 3.59369 144.522C5.15514 144.288 6.71641 144.053 8.27753 143.816C9.0585 143.716 9.83947 143.615 10.6441 143.511C14.6378 142.882 16.4624 142.588 19.2678 139.522C20.8466 136.371 22.0002 133.552 22.0002 130C19.1684 127.861 16.2728 125.874 13.3283 123.897C12.7096 123.471 12.0908 123.044 11.4533 122.606C10.8877 122.226 10.3222 121.845 9.73944 121.454C2.98189 115.805 0.599248 107.948 -0.257385 99.4429C-0.660674 93.4228 -0.74289 87.4103 -0.741028 81.3782C-0.749851 78.1752 -0.822883 74.9775 -0.898254 71.7755C-0.909981 69.7188 -0.917926 67.6622 -0.921692 65.6055C-0.950434 64.6595 -0.979176 63.7135 -1.00879 62.7389C-0.934237 57.2964 -0.0852253 54.4912 3.78046 50.556C7.36734 47.371 11.191 44.4721 14.9728 41.5235C18.9349 38.221 22.6426 34.6826 26.3752 31.1251C44.388 14.0151 44.388 14.0151 55.1227 7.70961C57.9432 6.08298 57.9432 6.08298 60.2837 4.3982C70.8749 -2.17907 82.9551 -0.866921 94.9924 -0.796803ZM46.6252 41.2344C45.3326 42.5371 44.0505 43.8503 42.7814 45.1759C40.3596 47.6561 37.7588 49.8922 35.133 52.1524C31.8663 54.9823 28.6712 57.8903 25.4728 60.7969C23.8829 62.2136 22.2671 63.6019 20.6213 64.9532C19.9007 65.5462 19.1801 66.1391 18.4377 66.7501C17.797 67.2605 17.1564 67.771 16.4963 68.2969C14.5319 70.5331 14.3459 72.0525 14.0002 75.0001C14.4565 77.73 14.4565 77.73 15.3635 80.5274C15.8285 82.0869 15.8285 82.0869 16.3029 83.6778C16.6361 84.7535 16.9694 85.8292 17.3127 86.9376C17.7951 88.5454 17.7951 88.5454 18.2873 90.1856C18.9083 92.245 19.5409 94.3009 20.1867 96.3526C20.8083 98.3756 21.347 100.424 21.8478 102.481C23.4881 106.067 25.8061 107.327 29.1252 109.375C30.2209 110.063 31.3166 110.752 32.4455 111.461C33.2885 111.969 34.1316 112.477 35.0002 113C38.8403 109.272 42.3117 105.348 45.7502 101.25C62.8027 81.2259 80.0525 71.5494 104.846 63.7857C107.734 62.88 110.617 61.9587 113.5 61.0352C138.164 53.1988 163.362 46.5645 189 54.0001C190.256 54.3636 191.511 54.7271 192.805 55.1016C206.28 59.2056 215.825 65.274 226 75.0001C227.409 76.2381 228.825 77.4683 230.25 78.6876C233.515 81.5155 236.558 84.5086 239.555 87.6173C241.36 89.3445 242.446 89.9846 244.961 90.0548C251.35 89.5792 256.336 87.7493 262.16 85.1407C265.857 83.6561 269.045 83.2877 273 83.0001C274.485 82.5051 274.485 82.5051 276 82.0001C261.351 58.1733 261.351 58.1733 240.972 39.4058C239.641 38.4569 238.321 37.4919 237.013 36.5123C228.458 30.175 220.685 26.4014 210.086 25.0079C208.489 24.7752 208.489 24.7752 206.86 24.5377C204.51 24.1965 202.16 23.8628 199.809 23.5356C195.79 22.9706 191.777 22.3741 187.764 21.7684C181.108 20.7659 174.45 19.7825 167.789 18.8123C163.195 18.143 158.601 17.4673 154.008 16.7865C150.988 16.3402 147.967 15.8999 144.945 15.461C143.532 15.2547 142.119 15.0463 140.706 14.8355C104.153 9.39053 74.1548 15.3349 46.6252 41.2344ZM122.411 79.9107C119 81.0002 115.579 82.0493 112.153 83.0899C96.4811 87.8928 83.8629 92.2552 72.0002 104C71.2628 104.688 70.5255 105.377 69.7658 106.086C60.7976 114.641 53.5564 124.739 46.3127 134.75C45.6612 135.645 45.6612 135.645 44.9965 136.557C42.7152 139.488 42.7152 139.488 42.0002 143C47.9056 143.706 53.7507 144.195 59.6916 144.43C61.3121 144.503 62.9325 144.578 64.5529 144.652C67.0627 144.766 69.5725 144.875 72.0829 144.974C74.5365 145.072 76.9889 145.187 79.4416 145.305C80.5513 145.342 80.5513 145.342 81.6834 145.381C86.9764 145.653 91.1539 146.815 96.0002 149C99.59 153.748 99.6698 159.236 100 165C103.619 166.206 106.925 166.108 110.688 166.063C111.39 166.058 112.091 166.054 112.815 166.049C114.543 166.037 116.272 166.019 118 166C118.165 164.463 118.165 164.463 118.332 162.895C118.492 161.534 118.652 160.173 118.813 158.813C118.918 157.802 118.918 157.802 119.026 156.772C119.545 152.511 120.42 149.451 123 146C125.584 144.708 127.429 144.871 130.324 144.867C132.05 144.864 132.05 144.864 133.811 144.861C135.73 144.868 135.73 144.868 137.688 144.875C138.348 144.876 139.008 144.878 139.688 144.879C153.17 144.907 166.647 145.16 180.125 145.438C181.105 145.457 182.085 145.477 183.094 145.497C188.79 145.613 194.485 145.75 200.18 145.918C202.095 145.974 204.01 146.026 205.926 146.075C208.782 146.151 211.637 146.247 214.492 146.348C215.774 146.378 215.774 146.378 217.082 146.409C222.397 146.624 226.292 147.466 231 150C234.071 154.369 234.511 158.664 234.688 163.875C234.722 164.563 234.756 165.252 234.791 165.961C234.873 167.64 234.938 169.32 235 171C238.3 171.66 241.6 172.32 245 173C244.835 171.659 244.67 170.319 244.5 168.938C242.717 150.296 245.984 134.225 251.793 116.691C253.052 113.489 253.052 113.489 253 112C251.875 112.09 250.749 112.181 249.59 112.274C241.338 112.585 235.238 112.132 228.927 106.429C226.441 103.941 224.022 101.406 221.659 98.8008C209.852 85.9857 197.219 78.6834 181 73.0001C180.19 72.7133 179.379 72.4264 178.544 72.1309C177.747 71.8557 176.95 71.5805 176.129 71.2969C175.409 71.0478 174.689 70.7987 173.948 70.5421C158.606 66.2726 136.807 75.2853 122.411 79.9107ZM281 88.0001C280.902 88.6059 280.804 89.2118 280.703 89.836C280.554 90.6739 280.404 91.5118 280.25 92.3751C280.111 93.1872 279.972 93.9993 279.828 94.836C279.137 97.4772 278.314 99.6827 277.246 102.176C274.312 109.338 272.441 116.802 270.481 124.276C269.816 126.8 269.132 129.319 268.447 131.838C265.294 143.641 262.244 155.407 265.625 167.5C265.779 168.163 265.932 168.825 266.09 169.508C267.35 174.336 269.009 177.031 273 180C276.729 181.617 280.553 182.813 284.438 184C286.598 184.691 288.758 185.382 290.918 186.074C292.483 186.568 292.483 186.568 294.08 187.072C297.825 188.262 301.54 189.516 305.25 190.813C306.805 191.348 306.805 191.348 308.391 191.895C310.954 192.981 312.867 194.227 315 196C316.77 194.23 316.146 191.676 316.161 189.278C316.171 188.052 316.181 186.826 316.19 185.564C316.195 184.212 316.2 182.86 316.203 181.508C316.209 180.123 316.215 178.738 316.221 177.354C316.231 174.44 316.237 171.526 316.24 168.612C316.246 164.906 316.27 161.2 316.298 157.494C316.317 154.627 316.322 151.76 316.324 148.892C316.328 146.87 316.347 144.848 316.366 142.826C316.323 124.723 310.642 114.057 298.41 101.457C297.239 100.247 296.088 99.0183 294.942 97.7852C291.096 93.7264 286.952 90.621 282 88.0001C281.67 88.0001 281.34 88.0001 281 88.0001ZM19.0002 164C18.1903 168.859 17.8482 173.306 17.8752 178.188C17.8713 178.898 17.8674 179.609 17.8635 180.342C17.8694 183.496 17.9957 185.987 19.0002 189C25.0782 192.039 34.3771 192.125 41.0002 192C40.3196 190.763 39.3196 189.763 38.6252 188.5C36.8365 184.648 35.9632 181.127 35.0002 177C34.6702 176.34 34.3402 175.68 34.0002 175C33.5409 169.833 34.1288 168.786 37.0002 164C31.0602 164 25.1202 164 19.0002 164ZM62.0002 164C63.1907 170.544 63.1907 170.544 65.6252 172.438C67.6308 174.717 67.4116 177.035 67.4963 179.965C66.7659 182.961 65.393 184.091 63.0002 186C55.9408 188.977 48.6151 190.484 41.0002 191C41.0002 191.33 41.0002 191.66 41.0002 192C51.8532 192.284 62.2539 191.473 73.0002 190C75.1525 185.292 76.6367 180.912 77.6877 175.813C78.0647 174.028 78.0647 174.028 78.4494 172.207C79.113 168.885 79.113 168.885 79.0002 165C73.3902 164.67 67.7802 164.34 62.0002 164ZM140 166C140 173.92 140 181.84 140 190C142.496 190.33 144.991 190.66 147.563 191C148.334 191.104 149.106 191.209 149.901 191.316C154.307 191.883 158.558 192.093 163 192C161.886 191.35 161.886 191.35 160.75 190.688C155.913 185.96 153.788 179.24 153.688 172.5C154 169 154 169 155 166C150.05 166 145.1 166 140 166ZM182 166C183.852 172.173 185.679 178.033 188 184C187.464 184.248 186.928 184.495 186.375 184.75C183.434 186.298 180.747 188.13 178 190C176.515 190.99 176.515 190.99 175 192C179.218 192.05 183.435 192.086 187.653 192.11C189.087 192.12 190.522 192.134 191.956 192.151C194.019 192.175 196.082 192.187 198.145 192.195C199.386 192.206 200.627 192.216 201.906 192.227C205.169 192.243 205.169 192.243 208 190C208.961 187.965 208.961 187.965 209.606 185.57C209.867 184.693 210.128 183.815 210.397 182.91C210.658 181.991 210.919 181.072 211.188 180.125C211.597 178.758 211.597 178.758 212.014 177.363C213.185 173.353 214 170.221 214 166C203.44 166 192.88 166 182 166ZM97.0002 187C96.0102 189.599 95.0202 192.198 94.0002 194.875C93.6869 195.692 93.3737 196.509 93.051 197.351C91.5391 201.07 91.5391 201.07 91.0002 205C91.9489 205.454 92.8977 205.908 93.8752 206.375C97.0002 208 97.0002 208 99.0002 210C100.592 215.267 99.412 218.177 97.0002 223C96.4433 224.134 95.8864 225.269 95.3127 226.438C94.8796 227.283 94.4464 228.129 94.0002 229C94.7221 228.711 95.4439 228.423 96.1877 228.125C97.1158 227.754 98.0439 227.383 99.0002 227C100.145 226.412 100.145 226.412 101.313 225.813C105.309 224.605 107.911 225.077 112 226C114.606 228.199 114.927 229.519 115.438 232.875C114.567 239.092 110.466 242.898 105.774 246.68C99.9212 251.037 94.2061 252.154 87.0002 252C81.8807 251.109 78.1601 249.09 75.0353 244.789C71.5889 238.833 70.397 233.254 71.3517 226.422C72.4321 222.387 74.5962 219.356 77.0002 216C78.0066 214.337 79.0073 212.671 80.0002 211C61.6363 210.891 43.3401 210.902 25.0002 212C22.222 240.908 31.1127 268.418 49.4142 290.992C58.0539 301.159 58.0539 301.159 68.0002 310C69.2813 307.438 68.7006 306.726 68.0002 304C67.7748 299.857 67.815 295.711 67.8127 291.563C67.8004 290.43 67.7882 289.298 67.7756 288.131C67.7736 287.037 67.7717 285.943 67.7697 284.816C67.7656 283.821 67.7615 282.825 67.7573 281.799C68.0169 278.807 68.6588 276.68 70.0002 274C72.7556 271.78 74.5456 271.056 78.0627 270.625C81.5005 271.064 82.5993 271.52 85.0002 274C85.6162 276.659 86.0091 278.999 86.2502 281.688C86.3275 282.389 86.4049 283.091 86.4846 283.815C86.6725 285.541 86.8385 287.271 87.0002 289C87.6241 288.203 88.248 287.407 88.8908 286.586C91.9377 282.851 91.9377 282.851 95.0002 282C100.243 282 100.243 282 103 283C105.5 286.063 105.5 286.063 107 289C107.248 288.443 107.495 287.886 107.75 287.313C109.563 283.96 111.531 280.734 115 279C117.813 278.625 117.813 278.625 121 279C123.778 281.16 125.62 282.743 126.653 286.16C127.858 296.006 127.295 308.545 121.68 316.984C118.202 321.391 114.64 324.458 108.903 325.313C103.745 325.596 100.184 324.532 95.7267 321.973C93.8543 320.846 93.8543 320.846 91.0002 320C88.3433 320.879 88.3433 320.879 86.0002 322C97.5832 334.762 125.453 339.819 142 341C182.34 342.861 219.05 330.254 249.25 303.375C250.078 302.608 250.905 301.841 251.758 301.051C254 299 254 299 257.125 296.563C259.669 293.086 259.2 290.567 259 286.375C259 283.069 259.746 281.405 262 279C267.307 276.848 272.22 276.648 277.879 276.441C282.819 275.743 285.327 273.72 288.688 270.125C292.463 265.023 293.598 261.452 292.746 255.164C291.613 251.878 289.632 250.53 286.789 248.68C284.81 247.712 284.81 247.712 282 249C280.761 251.091 280.761 251.091 279.813 253.563C279.469 254.389 279.124 255.215 278.77 256.066C278.516 256.705 278.262 257.343 278 258C268.706 257.721 259.54 256.974 251 253C247.452 249.16 246.746 245.57 246.813 240.395C247.182 235.671 248.354 231.102 249.438 226.5C251.348 218.247 253.023 210.181 253.375 201.688C253.449 200.456 253.449 200.456 253.524 199.199C253.189 196.825 253.189 196.825 251.028 195.344C247.159 193.627 243.314 192.702 239.188 191.813C238.005 191.547 238.005 191.547 236.799 191.275C234.868 190.842 232.934 190.42 231 190C230.648 190.941 230.296 191.882 229.934 192.852C224.637 206.455 224.637 206.455 218 210C211.043 212.086 204.025 212.295 196.817 212.266C195.771 212.268 194.725 212.271 193.647 212.274C190.285 212.278 186.924 212.266 183.563 212.25C182.421 212.247 181.28 212.245 180.104 212.242C166.972 212.204 153.854 212.118 140.75 211.188C139.72 211.118 138.689 211.048 137.627 210.976C132.186 210.504 127.765 209.746 123 207C120.061 203.432 119.592 200.423 119.375 195.875C119.204 192.609 119.038 190.113 118 187C111.07 187 104.14 187 97.0002 187ZM274 202C273.663 204.729 273.33 207.458 273 210.188C272.905 210.957 272.809 211.725 272.711 212.518C272.248 216.369 271.876 220.112 272 224C272.762 223.965 273.524 223.93 274.309 223.895C280.459 223.733 285.374 224.017 291.063 226.441C293.495 227.143 294.634 226.866 297 226C298.443 224.519 298.443 224.519 299.578 222.621C300.017 221.948 300.455 221.274 300.906 220.58C301.35 219.873 301.793 219.166 302.25 218.438C302.709 217.727 303.168 217.016 303.641 216.283C304.771 214.529 305.887 212.765 307 211C304.305 209.567 301.756 208.554 298.805 207.781C298.011 207.572 297.216 207.363 296.398 207.147C295.565 206.934 294.733 206.72 293.875 206.5C293.027 206.279 292.178 206.059 291.304 205.831C285.567 204.356 279.831 203.052 274 202Z" fill="black"/>
</svg>
