<svg width="2835" height="2835" viewBox="0 0 2835 2835" fill="none" xmlns="http://www.w3.org/2000/svg">
<path d="M1619.5 557.809C1621.32 559.53 1632.2 567.263 1634 569.001C1635.07 569.993 1635.07 569.993 1636.16 571.005C1652.25 586.326 1667.56 610.286 1669 633.001C1668.67 633.661 1668.34 634.321 1668 635.001C1668.71 635.108 1669.41 635.215 1670.14 635.325C1673.35 636.082 1675.84 637.284 1678.76 638.809C1679.87 639.386 1680.98 639.963 1682.12 640.558C1683.31 641.184 1684.5 641.811 1685.69 642.438C1686.92 643.082 1688.15 643.725 1689.37 644.368C1697.46 648.61 1705.48 652.975 1713.44 657.454C1718.82 660.474 1724.26 663.388 1729.69 666.313C1737.7 670.633 1745.65 675.05 1753.56 679.563C1761.13 683.877 1768.76 688.012 1776.5 692.001C1785.09 696.431 1793.54 701.064 1801.93 705.851C1809.96 710.426 1818.03 714.915 1826.12 719.376C1826.72 719.707 1827.32 720.038 1827.94 720.379C1830.84 721.976 1833.74 723.565 1836.65 725.131C1838.86 726.363 1841.02 727.67 1843.14 729.053C1851.8 734.474 1858.31 734.655 1868.13 733.674C1871.39 733.35 1874.65 733.119 1877.92 732.882C1879.58 732.761 1881.24 732.636 1882.89 732.507C1957.25 726.788 2044.1 742.369 2102.78 791.079C2106.91 794.656 2111 798.271 2115 802.001C2115.75 802.699 2116.5 803.396 2117.28 804.114C2137.27 823.334 2152.27 850.876 2153 879.001C2153.08 885.335 2153.06 891.667 2153 898.001C2153.71 898.269 2154.41 898.537 2155.14 898.813C2158.14 900.058 2160.94 901.49 2163.8 903.021C2164.93 903.624 2166.06 904.228 2167.23 904.849C2168.44 905.504 2169.66 906.159 2170.88 906.814C2171.5 907.148 2172.12 907.482 2172.76 907.826C2182.05 912.814 2191.26 917.935 2200.42 923.157C2210.75 929.028 2221.22 934.628 2231.69 940.231C2240.42 944.901 2249.12 949.6 2257.83 954.294C2259.92 955.42 2262.01 956.545 2264.1 957.669C2274.92 963.488 2285.7 969.363 2296.38 975.439C2307.74 981.903 2319.24 988.096 2330.76 994.265C2345.91 1002.39 2361.03 1010.56 2376 1019C2377.01 1019.56 2378.01 1020.13 2379.05 1020.7C2390.48 1027.29 2399.13 1035.66 2402.88 1048.69C2404.95 1057.15 2405.14 1065.48 2405.13 1074.15C2405.13 1075.97 2405.13 1075.97 2405.13 1077.84C2405.14 1081.21 2405.14 1084.58 2405.13 1087.96C2405.13 1091.63 2405.14 1095.3 2405.14 1098.97C2405.15 1105.4 2405.15 1111.84 2405.15 1118.27C2405.14 1127.84 2405.15 1137.41 2405.15 1146.97C2405.16 1165.06 2405.17 1183.14 2405.17 1201.22C2405.17 1215.18 2405.17 1229.15 2405.17 1243.11C2405.17 1247.13 2405.17 1251.15 2405.18 1255.16C2405.18 1256.16 2405.18 1257.16 2405.18 1258.19C2405.18 1286.29 2405.19 1314.39 2405.19 1342.49C2405.19 1343.55 2405.19 1344.61 2405.19 1345.7C2405.19 1351.07 2405.19 1356.45 2405.19 1361.82C2405.19 1363.42 2405.19 1363.42 2405.19 1365.05C2405.19 1367.2 2405.19 1369.36 2405.19 1371.52C2405.18 1405.08 2405.19 1438.64 2405.21 1472.2C2405.22 1509.9 2405.23 1547.6 2405.23 1585.3C2405.23 1589.32 2405.23 1593.34 2405.23 1597.36C2405.23 1598.35 2405.23 1599.34 2405.23 1600.36C2405.23 1616.29 2405.24 1632.22 2405.24 1648.15C2405.25 1664.16 2405.25 1680.17 2405.25 1696.18C2405.24 1705.69 2405.24 1715.2 2405.25 1724.72C2405.26 1731.07 2405.26 1737.43 2405.25 1743.78C2405.25 1747.4 2405.25 1751.02 2405.26 1754.64C2405.26 1758.54 2405.26 1762.45 2405.25 1766.35C2405.25 1767.47 2405.26 1768.59 2405.26 1769.74C2405.2 1784.56 2402.66 1799.93 2392 1811C2385.07 1816.63 2377.64 1821.07 2369.75 1825.19C2367.62 1826.32 2365.49 1827.46 2363.36 1828.59C2362.29 1829.16 2361.23 1829.73 2360.13 1830.32C2355.37 1832.88 2350.69 1835.57 2346 1838.25C2336.08 1843.92 2326.01 1849.28 2315.91 1854.61C2307.37 1859.12 2298.88 1863.7 2290.5 1868.5C2280.75 1874.09 2270.85 1879.37 2260.91 1884.61C2252.36 1889.12 2243.88 1893.7 2235.5 1898.5C2225.75 1904.09 2215.85 1909.37 2205.91 1914.61C2197.36 1919.12 2188.88 1923.7 2180.5 1928.5C2170.75 1934.09 2160.85 1939.37 2150.91 1944.61C2142.36 1949.12 2133.88 1953.7 2125.5 1958.5C2115.75 1964.09 2105.85 1969.37 2095.91 1974.61C2087.36 1979.12 2078.88 1983.7 2070.5 1988.5C2060.75 1994.09 2050.85 1999.37 2040.91 2004.61C2032.4 2009.1 2023.96 2013.66 2015.62 2018.44C2006.17 2023.86 1996.58 2028.99 1986.94 2034.07C1986.2 2034.46 1985.46 2034.84 1984.7 2035.25C1983.97 2035.63 1983.23 2036.02 1982.48 2036.42C1981.02 2037.18 1979.56 2037.95 1978.11 2038.72C1977.4 2039.09 1976.69 2039.46 1975.96 2039.85C1966.59 2044.8 1957.29 2049.89 1948 2055C1946.92 2055.6 1945.84 2056.19 1944.73 2056.81C1934.31 2062.54 1923.9 2068.29 1913.51 2074.05C1900.23 2081.41 1886.91 2088.69 1873.52 2095.84C1865.95 2099.88 1858.41 2103.97 1850.93 2108.17C1844.11 2111.98 1837.21 2115.64 1830.31 2119.32C1821.73 2123.89 1813.2 2128.55 1804.75 2133.38C1794.91 2139 1784.93 2144.32 1774.91 2149.61C1766.37 2154.12 1757.88 2158.7 1749.5 2163.51C1739.75 2169.09 1729.85 2174.37 1719.91 2179.61C1711.36 2184.12 1702.88 2188.7 1694.5 2193.51C1684.75 2199.09 1674.85 2204.37 1664.91 2209.61C1656.36 2214.12 1647.88 2218.7 1639.5 2223.51C1629.75 2229.09 1619.85 2234.37 1609.91 2239.61C1601.36 2244.12 1592.88 2248.7 1584.5 2253.51C1574.75 2259.09 1564.85 2264.37 1554.91 2269.61C1546.36 2274.12 1537.88 2278.7 1529.5 2283.51C1519.75 2289.09 1509.85 2294.37 1499.91 2299.61C1491.26 2304.17 1482.68 2308.82 1474.19 2313.69C1466.34 2318.18 1458.42 2322.51 1450.41 2326.69C1448.68 2327.6 1446.95 2328.51 1445.22 2329.43C1431.01 2336.79 1418.76 2340.05 1402.93 2335.62C1396.57 2333.58 1390.81 2330.22 1385 2327.01C1382.84 2325.82 1380.68 2324.64 1378.52 2323.45C1374.84 2321.43 1371.16 2319.4 1367.49 2317.36C1358.81 2312.54 1350.08 2307.8 1341.31 2303.13C1333.15 2298.78 1325.02 2294.38 1316.95 2289.85C1309.97 2285.96 1302.92 2282.2 1295.88 2278.44C1287.85 2274.16 1279.85 2269.85 1271.94 2265.35C1266.13 2262.05 1260.25 2258.87 1254.38 2255.69C1253.35 2255.14 1252.32 2254.58 1251.27 2254.01C1249.19 2252.89 1247.11 2251.77 1245.04 2250.65C1232.86 2244.06 1220.71 2237.43 1208.69 2230.57C1199.68 2225.43 1190.54 2220.61 1181.32 2215.87C1174.44 2212.32 1167.66 2208.61 1160.94 2204.76C1151.72 2199.48 1142.39 2194.46 1133 2189.51C1123.8 2184.65 1114.65 2179.74 1105.62 2174.57C1096.17 2169.15 1086.58 2164.02 1076.94 2158.94C1076.2 2158.55 1075.46 2158.16 1074.7 2157.76C1073.97 2157.38 1073.23 2156.99 1072.48 2156.59C1071.02 2155.82 1069.56 2155.06 1068.11 2154.29C1067.4 2153.92 1066.69 2153.54 1065.96 2153.16C1056.59 2148.21 1047.29 2143.12 1038 2138.01C1036.92 2137.41 1035.84 2136.82 1034.73 2136.2C1024.31 2130.47 1013.9 2124.72 1003.51 2118.96C990.226 2111.6 976.914 2104.32 963.519 2097.17C955.948 2093.13 948.415 2089.04 940.932 2084.84C934.109 2081.03 927.21 2077.37 920.312 2073.69C911.726 2069.12 903.196 2064.46 894.75 2059.63C884.759 2053.92 874.62 2048.51 864.445 2043.14C856.488 2038.93 848.551 2034.71 840.735 2030.25C834.995 2026.98 829.187 2023.83 823.375 2020.69C822.349 2020.14 821.323 2019.58 820.266 2019.01C818.19 2017.89 816.114 2016.77 814.039 2015.65C801.857 2009.06 789.714 2002.43 777.688 1995.57C768.523 1990.34 759.224 1985.43 749.847 1980.6C743.519 1977.33 737.269 1973.98 731.086 1970.45C725.269 1967.13 719.39 1963.94 713.5 1960.75C712.483 1960.2 711.467 1959.65 710.419 1959.09C707.28 1957.39 704.14 1955.7 701 1954C689.345 1947.71 677.695 1941.41 666.136 1934.95C658.638 1930.77 651.056 1926.75 643.481 1922.72C635.507 1918.46 627.595 1914.12 619.75 1909.63C609.916 1904.01 599.936 1898.69 589.918 1893.41C580.239 1888.3 570.666 1883.04 561.168 1877.61C553.744 1873.37 546.194 1869.42 538.599 1865.51C532.039 1862.11 525.596 1858.55 519.188 1854.88C510.318 1849.8 501.329 1844.98 492.277 1840.23C481.266 1834.45 470.288 1828.63 459.5 1822.44C458.571 1821.92 457.641 1821.4 456.684 1820.86C444.147 1813.55 436.126 1805.42 431.832 1791.52C429.885 1783.3 429.855 1775.1 429.869 1766.7C429.866 1765.48 429.864 1764.26 429.862 1763.01C429.858 1759.62 429.857 1756.24 429.859 1752.86C429.86 1749.18 429.855 1745.5 429.851 1741.82C429.843 1734.52 429.841 1727.23 429.84 1719.93C429.839 1711.19 429.833 1702.44 429.826 1693.7C429.81 1672.58 429.804 1651.45 429.799 1630.33C429.797 1620.33 429.793 1610.34 429.789 1600.34C429.777 1566.13 429.766 1531.91 429.762 1497.7C429.762 1495.55 429.762 1493.41 429.762 1491.26C429.761 1489.11 429.761 1486.95 429.761 1484.8C429.761 1480.48 429.76 1476.17 429.76 1471.85C429.76 1470.78 429.76 1469.71 429.759 1468.6C429.756 1433.88 429.74 1399.16 429.717 1364.44C429.692 1327.72 429.678 1291.01 429.677 1254.29C429.677 1250.26 429.677 1246.23 429.676 1242.2C429.676 1241.21 429.676 1240.22 429.676 1239.2C429.675 1223.23 429.664 1207.26 429.65 1191.29C429.635 1175.24 429.632 1159.19 429.64 1143.15C429.644 1133.61 429.641 1124.08 429.625 1114.55C429.615 1108.18 429.616 1101.8 429.626 1095.43C429.632 1091.81 429.632 1088.18 429.62 1084.55C429.606 1080.63 429.616 1076.72 429.628 1072.81C429.62 1071.69 429.613 1070.57 429.605 1069.42C429.703 1054.62 433.552 1039.73 444.012 1028.78C452.603 1021.1 463.765 1016.4 473.918 1011.16C483.368 1006.27 492.681 1001.14 502 996.002C503.643 995.097 503.643 995.097 505.32 994.174C515.717 988.446 526.111 982.711 536.495 976.958C549.774 969.601 563.086 962.315 576.481 955.17C584.052 951.131 591.585 947.039 599.068 942.841C605.289 939.365 611.574 936.012 617.863 932.661C628.163 927.174 638.458 921.68 648.511 915.747C653.467 912.85 658.367 910.374 663.691 908.216C674.835 903.954 674.835 903.954 682.151 895.229C683.485 888.603 683.197 881.995 682.98 875.272C683.011 870.263 684.005 865.647 685.25 860.814C685.47 859.956 685.689 859.099 685.916 858.216C691.305 838.224 701.001 822.093 715 807.001C715.824 806.107 716.647 805.212 717.496 804.29C723.562 797.975 730.236 792.59 737.221 787.341C738.365 786.479 739.505 785.611 740.639 784.736C790.94 745.932 858.971 733.684 921 732.001C921.798 731.978 922.596 731.954 923.418 731.93C932.915 731.69 942.316 731.995 951.789 732.661C954.48 732.838 957.172 733.013 959.863 733.188C962.508 733.372 965.147 733.594 967.789 733.817C978.205 734.577 985.008 733.877 994 728.001C995.758 727.013 997.521 726.033 999.289 725.064C1001.07 724.045 1002.85 723.024 1004.62 722.001C1012.94 717.258 1021.31 712.641 1029.75 708.126C1038.75 703.308 1047.71 698.413 1056.62 693.438C1070.02 685.968 1083.5 678.654 1097 671.385C1108.78 665.043 1120.53 658.659 1132.1 651.946C1137.41 648.899 1142.79 646.114 1148.34 643.528C1150.2 642.64 1152.06 641.748 1153.92 640.856C1155.7 640.023 1157.5 639.241 1159.31 638.46C1165.58 635.503 1165.58 635.503 1169.35 629.93C1170.11 626.619 1170.6 623.372 1171 620.001C1176.72 596.398 1193.37 575.041 1212 560.001C1212.87 559.277 1213.75 558.554 1214.65 557.809C1294.44 493.912 1498 478 1619.5 557.809ZM1267.31 634.188C1262.17 639.676 1257.86 646.282 1258 654.001C1260 661.891 1265.4 667.379 1271 673.001C1271.57 673.595 1272.14 674.189 1272.73 674.802C1312.35 712.794 1380.58 716.128 1431.93 715.106C1477.72 714.018 1536.63 704.894 1570 670.001C1575.02 663.839 1579 658.349 1579 650.188C1577.29 640.054 1567.93 631.316 1559.96 625.518C1527.19 602.989 1489.15 593.733 1450 590.001C1448.88 589.893 1448.88 589.893 1447.74 589.782C1387.67 584.344 1313.38 590.884 1267.31 634.188ZM1160.85 740.712C1159.77 741.292 1158.69 741.873 1157.58 742.471C1156.41 743.106 1155.24 743.741 1154.06 744.376C1152.87 745.021 1151.67 745.666 1150.48 746.31C1141.65 751.084 1132.86 755.916 1124.1 760.828C1121.87 762.076 1119.62 763.311 1117.38 764.544C1115.9 765.363 1114.42 766.182 1112.94 767.001C1111.91 767.562 1111.91 767.562 1110.86 768.135C1107.33 769.938 1107.33 769.938 1105 773.001C1106.42 773.819 1106.42 773.819 1107.86 774.653C1123.62 783.862 1138.24 794.902 1151 808.001C1151.63 808.65 1152.27 809.298 1152.92 809.966C1177.53 836.514 1184.16 870.221 1184.15 905.194C1184.15 906.538 1184.15 907.882 1184.16 909.227C1184.16 912.828 1184.17 916.429 1184.17 920.031C1184.17 922.293 1184.17 924.554 1184.17 926.816C1184.18 934.74 1184.19 942.663 1184.19 950.586C1184.18 957.92 1184.2 965.254 1184.21 972.588C1184.22 978.931 1184.23 985.274 1184.23 991.617C1184.23 995.385 1184.23 999.153 1184.24 1002.92C1184.34 1040.15 1184.34 1040.15 1179.94 1056.38C1179.73 1057.15 1179.52 1057.93 1179.3 1058.73C1173.6 1078.57 1162.59 1094.92 1148.34 1109.61C1147.21 1110.78 1146.11 1111.97 1145.02 1113.17C1100.42 1160.82 1022.51 1178.36 960 1181C953.105 1181.21 946.21 1181.25 939.312 1181.25C938.356 1181.25 937.4 1181.25 936.415 1181.25C864.287 1181.17 785.546 1166.78 729 1119C727.956 1118.16 726.91 1117.33 725.863 1116.49C703.024 1098.04 687.702 1071.21 684 1042C683.763 1038.93 683.61 1035.86 683.465 1032.79C683.422 1031.93 683.379 1031.08 683.335 1030.19C683.199 1027.48 683.068 1024.77 682.938 1022.06C682.846 1020.22 682.754 1018.37 682.662 1016.52C682.438 1012.02 682.218 1007.51 682 1003C678.642 1004.3 675.445 1005.74 672.254 1007.4C671.346 1007.87 670.439 1008.35 669.503 1008.83C668.533 1009.34 667.562 1009.85 666.562 1010.38C665.54 1010.91 664.518 1011.45 663.465 1012C650.579 1018.77 637.826 1025.78 625.086 1032.82C624.488 1033.15 623.891 1033.48 623.275 1033.82C619.593 1035.86 619.593 1035.86 615.911 1037.89C609.147 1041.64 602.369 1045.36 595.547 1048.99C594.949 1049.31 594.351 1049.63 593.735 1049.96C590.897 1051.48 588.056 1052.99 585.21 1054.49C584.202 1055.02 583.195 1055.56 582.156 1056.11C580.839 1056.81 580.839 1056.81 579.494 1057.52C576.784 1059.13 574.419 1060.98 572 1063C586.425 1071.37 601.023 1079.38 615.729 1087.25C620.993 1090.07 626.248 1092.91 631.5 1095.75C632.5 1096.29 633.501 1096.83 634.531 1097.39C641.002 1100.9 647.441 1104.47 653.865 1108.06C661.362 1112.24 668.944 1116.25 676.519 1120.29C684.493 1124.54 692.405 1128.89 700.25 1133.38C710.084 1139 720.064 1144.32 730.082 1149.6C739.761 1154.71 749.334 1159.96 758.832 1165.4C765.31 1169.09 771.872 1172.59 778.5 1176C786.159 1179.95 793.707 1184.04 801.188 1188.31C814.316 1195.81 827.654 1202.9 841 1210C845.773 1212.54 850.544 1215.08 855.312 1217.63C855.898 1217.94 856.484 1218.25 857.088 1218.58C865.848 1223.26 874.51 1228.09 883.136 1233.02C892.311 1238.23 901.622 1243.18 910.943 1248.12C912.216 1248.8 913.489 1249.48 914.762 1250.15C915.383 1250.48 916.005 1250.81 916.645 1251.15C923.13 1254.6 929.577 1258.11 936.018 1261.64C940.631 1264.16 945.249 1266.68 949.879 1269.17C959.767 1274.5 969.614 1279.88 979.375 1285.44C990.737 1291.9 1002.24 1298.1 1013.76 1304.27C1019.01 1307.08 1024.26 1309.92 1029.5 1312.75C1030.5 1313.29 1031.5 1313.84 1032.53 1314.39C1039 1317.9 1045.44 1321.47 1051.86 1325.06C1059.36 1329.24 1066.94 1333.26 1074.52 1337.29C1082.49 1341.54 1090.4 1345.89 1098.25 1350.38C1108.09 1356 1118.07 1361.32 1128.09 1366.61C1137.55 1371.6 1146.92 1376.73 1156.2 1382.05C1164.38 1386.71 1172.68 1391.11 1181 1395.5C1191.16 1400.86 1201.23 1406.34 1211.2 1412.05C1220.06 1417.1 1229.07 1421.85 1238.08 1426.6C1247.76 1431.71 1257.33 1436.96 1266.83 1442.4C1273.31 1446.09 1279.87 1449.59 1286.5 1453C1294.08 1456.91 1301.54 1460.95 1308.94 1465.19C1318.19 1470.49 1327.57 1475.53 1337 1480.5C1347.37 1485.97 1357.64 1491.57 1367.82 1497.39C1375.34 1501.68 1382.98 1505.72 1390.69 1509.66C1395.28 1512.03 1399.81 1514.44 1404.27 1517.05C1405.09 1517.52 1405.91 1518 1406.76 1518.49C1408.29 1519.39 1409.82 1520.3 1411.33 1521.23C1415.13 1523.53 1415.13 1523.53 1419.41 1523.56C1420.26 1523.05 1421.12 1522.53 1422 1522C1423.42 1521.28 1424.85 1520.57 1426.27 1519.86C1427.98 1518.97 1429.68 1518.08 1431.38 1517.19C1432.3 1516.7 1433.23 1516.22 1434.19 1515.72C1441.76 1511.72 1449.2 1507.51 1456.64 1503.26C1465 1498.51 1473.49 1493.99 1482 1489.5C1491.24 1484.63 1500.43 1479.7 1509.5 1474.5C1519.25 1468.91 1529.15 1463.64 1539.09 1458.4C1547.64 1453.89 1556.12 1449.31 1564.5 1444.5C1574.25 1438.91 1584.15 1433.64 1594.09 1428.4C1602.64 1423.89 1611.12 1419.31 1619.5 1414.5C1629.25 1408.91 1639.15 1403.64 1649.09 1398.4C1657.6 1393.91 1666.04 1389.35 1674.38 1384.56C1684.53 1378.74 1694.87 1373.28 1705.24 1367.83C1715.02 1362.68 1724.71 1357.41 1734.3 1351.9C1743.13 1346.87 1752.11 1342.14 1761.09 1337.4C1769.6 1332.91 1778.04 1328.35 1786.38 1323.56C1796.65 1317.68 1807.09 1312.14 1817.56 1306.63C1826.31 1302.02 1835.04 1297.4 1843.65 1292.55C1849.63 1289.19 1855.65 1285.94 1861.69 1282.69C1869.51 1278.47 1877.28 1274.16 1885 1269.75C1894.92 1264.09 1904.99 1258.73 1915.09 1253.4C1923.63 1248.89 1932.12 1244.31 1940.5 1239.5C1950.25 1233.91 1960.15 1228.64 1970.09 1223.4C1978.64 1218.89 1987.12 1214.31 1995.5 1209.5C2005.25 1203.91 2015.15 1198.64 2025.09 1193.4C2033.64 1188.89 2042.12 1184.31 2050.5 1179.5C2060.25 1173.91 2070.15 1168.64 2080.09 1163.4C2088.64 1158.89 2097.12 1154.31 2105.5 1149.5C2115.25 1143.91 2125.15 1138.64 2135.09 1133.4C2143.6 1128.91 2152.04 1124.35 2160.38 1119.56C2169.8 1114.16 2179.38 1109.06 2189 1104C2199.56 1098.45 2210.05 1092.8 2220.4 1086.85C2225.86 1083.73 2231.37 1080.72 2236.93 1077.79C2237.96 1077.25 2237.96 1077.25 2239.01 1076.69C2242.38 1074.91 2245.76 1073.14 2249.15 1071.38C2250.39 1070.73 2251.62 1070.08 2252.86 1069.44C2253.94 1068.87 2255.03 1068.3 2256.16 1067.72C2258.9 1066.06 2260.86 1064.36 2263 1062C2262.39 1061.67 2261.78 1061.34 2261.15 1061C2225.34 1041.63 2225.34 1041.63 2208.45 1032.27C2196.18 1025.47 2183.87 1018.74 2171.5 1012.13C2170.85 1011.78 2170.21 1011.43 2169.54 1011.08C2167.71 1010.09 2165.87 1009.11 2164.03 1008.13C2162.99 1007.58 2161.94 1007.02 2160.86 1006.44C2158.28 1005.14 2155.7 1004.03 2153 1003C2152.96 1003.81 2152.91 1004.62 2152.86 1005.45C2150.67 1043.9 2145.18 1075.49 2120 1106C2119.24 1107.01 2118.47 1108.02 2117.69 1109.06C2113.56 1113.58 2108.8 1117.22 2104 1121C2102.53 1122.2 2102.53 1122.2 2101.03 1123.42C2092.18 1130.46 2082.79 1136.35 2073 1142C2072.31 1142.4 2071.62 1142.8 2070.91 1143.22C2058.8 1150.16 2046.08 1155.2 2033 1160C2031.86 1160.43 2031.86 1160.43 2030.7 1160.86C2006.19 1170.01 1979.82 1174.47 1954 1178C1952.83 1178.17 1951.66 1178.33 1950.46 1178.5C1914.68 1183.36 1876.72 1183.19 1841 1178C1839.98 1177.86 1838.96 1177.72 1837.9 1177.58C1805.82 1173.15 1774.1 1164.28 1745 1150C1744.13 1149.57 1743.25 1149.15 1742.35 1148.71C1726.3 1140.77 1711.74 1131.51 1698 1120C1696.92 1119.12 1695.83 1118.23 1694.75 1117.35C1688.64 1112.32 1682.83 1107.31 1678 1101C1676.83 1099.5 1676.83 1099.5 1675.64 1097.96C1653.79 1069.02 1650.51 1037.43 1650.6 1002.24C1650.6 998.124 1650.6 994.005 1650.59 989.887C1650.59 982.975 1650.59 976.064 1650.61 969.153C1650.63 961.218 1650.62 953.283 1650.6 945.348C1650.59 938.477 1650.59 931.606 1650.6 924.735C1650.6 920.656 1650.6 916.578 1650.59 912.5C1650.5 870.518 1650.5 870.518 1656.94 853.314C1657.19 852.579 1657.45 851.845 1657.72 851.089C1659.12 847.16 1660.68 843.348 1662.44 839.564C1664.42 836.134 1664.42 836.134 1663 833.001C1659.64 833.732 1659.64 833.731 1658.27 837.361C1657.64 838.822 1657 840.285 1656.38 841.751C1643.46 870.379 1618.88 891.757 1591.9 906.934C1590.64 907.641 1589.39 908.357 1588.14 909.081C1547.77 932.492 1500.01 941.373 1454 945.001C1453.13 945.072 1452.27 945.143 1451.37 945.215C1371.16 951.404 1278.12 938.816 1214.88 885.189C1213.84 884.284 1212.81 883.375 1211.78 882.462C1210.09 880.971 1208.38 879.508 1206.63 878.103C1184.12 859.727 1172.91 829.793 1169.37 801.728C1167.29 780.607 1167.48 759.205 1167 738.001C1164.88 738.001 1162.64 739.745 1160.85 740.712ZM1670 739.001C1669.99 739.613 1669.98 740.224 1669.98 740.854C1669.89 747.313 1669.79 753.771 1669.68 760.229C1669.64 762.628 1669.61 765.027 1669.58 767.426C1669.1 802.899 1669.1 802.899 1664.81 818.439C1663.23 823.687 1663.23 823.687 1664 829.001C1672.97 819.55 1672.97 819.55 1681.62 809.814C1691.05 798.92 1701.61 787.64 1715 782.001C1717.7 780.523 1720.32 778.926 1722.94 777.314C1723.62 776.898 1724.31 776.482 1725.01 776.054C1726.68 775.04 1728.34 774.021 1730 773.001C1727.06 769.785 1724.18 767.808 1720.33 765.786C1719.2 765.188 1718.07 764.59 1716.91 763.974C1715.69 763.337 1714.47 762.701 1713.25 762.064C1712 761.403 1710.75 760.742 1709.5 760.081C1707.58 759.064 1705.66 758.048 1703.74 757.035C1697.3 753.639 1690.9 750.168 1684.5 746.689C1682.55 745.629 1680.6 744.571 1678.66 743.513C1677.85 743.074 1677.04 742.635 1676.21 742.183C1674.16 741.086 1672.09 740.038 1670 739.001ZM1258 772.001C1257.88 775.459 1257.81 778.917 1257.75 782.376C1257.72 783.342 1257.68 784.307 1257.65 785.302C1257.5 796.465 1261.39 804.935 1269 813.001C1277.39 821.093 1286.7 826.685 1297 832.001C1298.7 832.91 1298.7 832.91 1300.44 833.837C1335.3 851.364 1378.7 857.257 1417.38 857.189C1418.07 857.188 1418.77 857.187 1419.49 857.186C1468.99 857.043 1530.11 848.526 1567.77 813.255C1575.32 805.613 1579.04 799.29 1579.2 788.407C1579.18 786.439 1579.16 784.47 1579.12 782.501C1579.11 780.981 1579.11 780.981 1579.1 779.431C1579.07 776.954 1579.04 774.478 1579 772.001C1578.43 772.252 1577.86 772.502 1577.27 772.76C1527.57 794.44 1475.84 805.514 1421.56 805.314C1420.53 805.312 1419.49 805.31 1418.42 805.308C1400.45 805.255 1382.82 804.425 1365 802.001C1363.77 801.835 1362.54 801.669 1361.27 801.497C1325.86 796.53 1290.37 787.396 1258 772.001ZM788 864.001C786.906 864.817 786.906 864.817 785.789 865.65C779.762 870.413 774.493 877.368 773 885.001C773 893.594 778.343 900.516 784 906.564C824.872 945.264 892.239 951.22 945.344 950.107C994.712 948.689 1048.53 938.767 1085.75 903.751C1090.37 898.814 1093.68 892.977 1094.22 886.13C1093.23 876.474 1085.14 868.403 1078.04 862.568C1061.5 849.927 1042.64 842.408 1023 836.001C1022.21 835.74 1021.42 835.478 1020.6 835.209C949.314 812.14 848.757 817.351 788 864.001ZM1806 838.001C1805.14 838.288 1804.28 838.574 1803.39 838.869C1783.5 845.581 1765.4 854.418 1750.31 869.251C1749.57 869.976 1749.57 869.976 1748.82 870.715C1744.04 875.609 1741.37 880.782 1740.81 887.572C1741.45 895.759 1747.69 903.182 1753.63 908.446C1755.35 909.809 1757.09 911.104 1758.88 912.376C1759.52 912.844 1760.17 913.312 1760.84 913.794C1800.83 942.037 1850.37 950.246 1898.38 950.189C1899.31 950.188 1900.24 950.188 1901.2 950.187C1915.22 950.163 1929.09 949.912 1943 948.002C1943.95 947.873 1944.91 947.744 1945.89 947.611C1982.71 942.448 2032.23 931.327 2056.21 900.13C2059.6 895.044 2062.73 890.325 2061.65 883.947C2053.85 864.087 2033.55 852.367 2015 844.095C1980.7 829.423 1942.41 823.758 1905.31 823.814C1904.5 823.815 1903.69 823.816 1902.85 823.817C1869.83 823.899 1837.45 827.491 1806 838.001ZM773 1007C772.225 1027.55 772.225 1027.55 782 1045C782.526 1045.6 783.052 1046.19 783.594 1046.81C814.273 1079.37 871.669 1089.71 913.982 1091.07C919.175 1091.18 924.368 1091.2 929.562 1091.19C930.371 1091.19 931.179 1091.19 932.012 1091.19C964.549 1091.11 996.953 1088.3 1028 1078C1029.04 1077.67 1029.04 1077.67 1030.09 1077.33C1051.14 1070.47 1080.33 1057.33 1091.44 1036.94C1094.52 1030.62 1094.13 1023.42 1094.06 1016.56C1094.06 1015.32 1094.06 1015.32 1094.05 1014.06C1094.04 1012.04 1094.02 1010.02 1094 1008C1088.91 1009.59 1084.04 1011.35 1079.23 1013.65C997.263 1052.66 888.038 1047.87 803.519 1019.26C794.889 1016.18 786.46 1012.6 778.083 1008.89C775.873 1007.91 775.873 1007.91 773 1007ZM1741 1007C1740.88 1010.46 1740.81 1013.92 1740.75 1017.38C1740.72 1018.34 1740.68 1019.31 1740.65 1020.3C1740.51 1030.77 1743.82 1038.56 1750.56 1046.5C1782.54 1079.3 1840.18 1090.32 1884 1091C1885.79 1091.03 1885.79 1091.03 1887.62 1091.06C1942.61 1091.91 2009.5 1086.88 2051.36 1046.68C2056.55 1041.42 2061.6 1035.9 2062.23 1028.23C2062.22 1027.25 2062.21 1026.27 2062.2 1025.26C2062.19 1024.2 2062.18 1023.13 2062.18 1022.03C2062.16 1020.93 2062.14 1019.83 2062.12 1018.69C2062.11 1017.01 2062.11 1017.01 2062.1 1015.29C2062.07 1012.53 2062.04 1009.76 2062 1007C2061.42 1007.26 2060.84 1007.51 2060.24 1007.78C1992.59 1037.35 1916.12 1046.66 1843 1037C1841.94 1036.86 1840.87 1036.72 1839.78 1036.58C1807.23 1032.13 1775.91 1022.52 1746.07 1008.91C1743.87 1007.91 1743.87 1007.91 1741 1007ZM2306.95 1141.72C2305.9 1142.32 2304.84 1142.91 2303.75 1143.52C2302.9 1144 2302.9 1144 2302.03 1144.5C2298.97 1146.23 2295.91 1147.94 2292.84 1149.65C2292.2 1150.01 2291.56 1150.37 2290.9 1150.74C2283.9 1154.63 2276.83 1158.38 2269.75 1162.13C2260.97 1166.78 2252.25 1171.5 2243.62 1176.44C2234.52 1181.65 2225.28 1186.61 2216 1191.5C2205.7 1196.93 2195.5 1202.48 2185.39 1208.25C2169.97 1217.04 2154.26 1225.31 2138.54 1233.54C2133.15 1236.37 2127.83 1239.32 2122.53 1242.34C2116.22 1245.91 2109.83 1249.33 2103.44 1252.75C2095.15 1257.19 2086.92 1261.71 2078.75 1266.38C2069.28 1271.78 2059.69 1276.93 2050.06 1282.03C2041.69 1286.46 2033.4 1290.99 2025.19 1295.69C2017.39 1300.16 2009.5 1304.39 2001.5 1308.5C1992.45 1313.15 1983.56 1318.01 1974.73 1323.06C1964.36 1328.97 1953.85 1334.59 1943.33 1340.22C1937.72 1343.22 1932.11 1346.24 1926.5 1349.25C1925.41 1349.84 1924.31 1350.43 1923.19 1351.03C1916.39 1354.7 1909.62 1358.41 1902.88 1362.19C1896.48 1365.76 1890.02 1369.23 1883.56 1372.69C1874.58 1377.51 1865.65 1382.4 1856.75 1387.38C1846.51 1393.1 1836.19 1398.66 1825.82 1404.15C1817.69 1408.46 1809.62 1412.86 1801.62 1417.44C1791.83 1423.05 1781.89 1428.34 1771.91 1433.61C1763.36 1438.11 1754.88 1442.7 1746.5 1447.5C1736.75 1453.09 1726.85 1458.36 1716.91 1463.61C1708.36 1468.12 1699.88 1472.7 1691.5 1477.5C1681.75 1483.09 1671.85 1488.36 1661.91 1493.61C1653.36 1498.12 1644.88 1502.7 1636.5 1507.5C1626.75 1513.09 1616.85 1518.36 1606.91 1523.61C1598.36 1528.12 1589.88 1532.7 1581.5 1537.5C1571.75 1543.09 1561.85 1548.36 1551.91 1553.61C1542.45 1558.6 1533.09 1563.73 1523.81 1569.05C1515.55 1573.75 1507.16 1578.2 1498.75 1582.63C1479.74 1591.3 1479.74 1591.3 1463 1603C1462.9 1604.35 1462.88 1605.7 1462.88 1607.05C1462.87 1607.93 1462.87 1608.81 1462.87 1609.72C1462.87 1610.7 1462.87 1611.68 1462.88 1612.68C1462.88 1613.72 1462.87 1614.75 1462.87 1615.82C1462.87 1619.33 1462.88 1622.85 1462.88 1626.36C1462.88 1628.88 1462.88 1631.41 1462.88 1633.93C1462.88 1639.45 1462.88 1644.96 1462.88 1650.48C1462.89 1658.68 1462.89 1666.88 1462.89 1675.08C1462.88 1688.87 1462.89 1702.66 1462.89 1716.45C1462.9 1730.11 1462.9 1743.77 1462.91 1757.43C1462.91 1758.28 1462.91 1759.13 1462.91 1760.01C1462.91 1764.31 1462.91 1768.62 1462.91 1772.93C1462.91 1803.47 1462.92 1834.01 1462.92 1864.55C1462.93 1894.23 1462.94 1923.91 1462.95 1953.58C1462.95 1954.5 1462.95 1955.41 1462.95 1956.35C1462.95 1965.54 1462.95 1974.72 1462.95 1983.9C1462.95 2002.6 1462.95 2021.3 1462.96 2040.01C1462.96 2040.87 1462.96 2041.73 1462.96 2042.61C1462.97 2100.08 1462.98 2157.54 1463 2215.01C1465.55 2213.73 1468.11 2212.46 1470.66 2211.19C1471.38 2210.83 1472.1 2210.47 1472.84 2210.1C1478.39 2207.33 1483.87 2204.44 1489.31 2201.44C1490.68 2200.7 1490.68 2200.7 1492.07 2199.93C1500.67 2195.21 1509.25 2190.42 1517.82 2185.65C1529.17 2179.34 1540.58 2173.17 1552 2167.01C1556.13 2164.78 1560.25 2162.55 1564.38 2160.32C1565.38 2159.77 1566.39 2159.23 1567.43 2158.66C1573.94 2155.14 1580.41 2151.56 1586.86 2147.95C1594.36 2143.77 1601.94 2139.75 1609.52 2135.72C1617.49 2131.46 1625.4 2127.12 1633.25 2122.63C1643.09 2117.01 1653.07 2111.69 1663.09 2106.4C1671.7 2101.86 1680.24 2097.23 1688.69 2092.38C1698.51 2086.74 1708.53 2081.51 1718.63 2076.38C1725.79 2072.73 1732.8 2068.9 1739.74 2064.87C1743.13 2062.93 1746.55 2061.08 1750 2059.25C1750.67 2058.9 1751.35 2058.54 1752.04 2058.17C1752.61 2057.87 1753.17 2057.58 1753.75 2057.27C1764.87 2051.36 1775.97 2045.37 1786.88 2039.07C1794.15 2034.87 1801.54 2030.9 1808.92 2026.92C1814.89 2023.7 1820.83 2020.44 1826.75 2017.13C1834.94 2012.54 1843.23 2008.13 1851.52 2003.72C1859.49 1999.46 1867.4 1995.12 1875.25 1990.63C1885.09 1985 1895.07 1979.69 1905.09 1974.4C1913.6 1969.91 1922.04 1965.35 1930.38 1960.57C1939.83 1955.15 1949.42 1950.02 1959.06 1944.94C1959.8 1944.55 1960.54 1944.16 1961.3 1943.76C1962.03 1943.38 1962.77 1942.99 1963.52 1942.59C1964.98 1941.82 1966.44 1941.06 1967.89 1940.29C1968.6 1939.92 1969.31 1939.54 1970.04 1939.16C1979.41 1934.21 1988.71 1929.12 1998 1924C1999.62 1923.11 1999.62 1923.11 2001.27 1922.2C2011.69 1916.47 2022.1 1910.72 2032.49 1904.96C2045.77 1897.6 2059.09 1890.32 2072.48 1883.17C2080.05 1879.13 2087.59 1875.04 2095.07 1870.84C2101.89 1867.03 2108.79 1863.37 2115.69 1859.69C2124.27 1855.12 2132.8 1850.46 2141.25 1845.63C2151.09 1840 2161.07 1834.69 2171.09 1829.4C2179.7 1824.86 2188.24 1820.23 2196.69 1815.38C2205.29 1810.44 2214.04 1805.83 2222.88 1801.32C2231.17 1797.07 2239.37 1792.75 2247.33 1787.91C2254.29 1783.74 2261.46 1779.98 2268.62 1776.19C2281.55 1769.35 2294.32 1762.28 2307 1755C2309.31 1753.68 2311.62 1752.36 2314 1751C2314 1549.04 2314 1347.08 2314 1139C2311.12 1139 2309.46 1140.3 2306.95 1141.72ZM522 1140C522 1341.96 522 1543.92 522 1752C529.59 1755.96 537.18 1759.92 545 1764C555.812 1770.13 555.812 1770.13 558.935 1771.91C567.545 1776.82 576.295 1781.45 585.062 1786.07C588.005 1787.62 590.948 1789.17 593.891 1790.72C594.598 1791.09 595.306 1791.47 596.035 1791.85C605.413 1796.8 614.714 1801.89 624 1807C625.08 1807.6 626.159 1808.19 627.271 1808.81C637.685 1814.54 648.095 1820.29 658.495 1826.05C671.774 1833.4 685.086 1840.69 698.481 1847.84C706.052 1851.87 713.585 1855.97 721.068 1860.16C727.891 1863.98 734.79 1867.64 741.688 1871.32C750.274 1875.89 758.804 1880.55 767.25 1885.38C777.087 1891 787.07 1896.32 797.091 1901.61C806.554 1906.6 815.915 1911.73 825.199 1917.05C833.376 1921.71 841.677 1926.11 850 1930.5C860.162 1935.86 870.23 1941.34 880.199 1947.05C888.376 1951.71 896.677 1956.11 905 1960.5C915.162 1965.86 925.23 1971.34 935.199 1977.05C943.376 1981.71 951.677 1986.11 960 1990.5C970.162 1995.86 980.23 2001.34 990.199 2007.05C998.376 2011.71 1006.68 2016.11 1015 2020.5C1025.16 2025.86 1035.23 2031.34 1045.2 2037.05C1054.06 2042.1 1063.07 2046.85 1072.08 2051.6C1081.76 2056.71 1091.33 2061.96 1100.83 2067.4C1107.31 2071.1 1113.87 2074.59 1120.5 2078C1128.16 2081.95 1135.71 2086.04 1143.19 2090.32C1151.7 2095.18 1160.29 2099.89 1168.94 2104.51C1169.53 2104.82 1170.12 2105.13 1170.72 2105.46C1173.67 2107.03 1176.62 2108.6 1179.56 2110.17C1192.39 2117.02 1205.17 2123.96 1217.86 2131.06C1225.36 2135.24 1232.94 2139.26 1240.52 2143.29C1248.49 2147.55 1256.4 2151.89 1264.25 2156.38C1274.09 2162 1284.07 2167.32 1294.09 2172.61C1303.54 2177.6 1312.89 2182.72 1322.16 2188.03C1332.05 2193.67 1342.11 2198.97 1352.18 2204.27C1352.84 2204.62 1353.51 2204.97 1354.19 2205.33C1356.01 2206.29 1357.82 2207.24 1359.63 2208.2C1362.06 2209.5 1364.43 2210.84 1366.8 2212.23C1369.68 2214.17 1369.68 2214.17 1372 2214.01C1372 2012.04 1372 1810.08 1372 1602C1363.75 1597.71 1355.5 1593.42 1347 1589C1341.42 1585.85 1335.84 1582.7 1330.28 1579.52C1322.93 1575.36 1315.47 1571.44 1308 1567.5C1297.84 1562.14 1287.77 1556.67 1277.8 1550.96C1269.62 1546.3 1261.32 1541.89 1253 1537.5C1242.84 1532.14 1232.77 1526.67 1222.8 1520.96C1214.62 1516.3 1206.32 1511.89 1198 1507.5C1187.84 1502.14 1177.77 1496.67 1167.8 1490.96C1159.62 1486.3 1151.32 1481.89 1143 1477.5C1132.84 1472.14 1122.77 1466.67 1112.8 1460.96C1103.94 1455.91 1094.93 1451.16 1085.91 1446.4C1077.4 1441.91 1068.96 1437.35 1060.62 1432.56C1051.17 1427.15 1041.58 1422.02 1031.94 1416.94C1030.83 1416.36 1030.83 1416.36 1029.7 1415.76C1028.6 1415.18 1028.6 1415.18 1027.48 1414.59C1026.02 1413.82 1024.56 1413.05 1023.11 1412.29C1022.4 1411.91 1021.69 1411.54 1020.96 1411.16C1011.59 1406.21 1002.29 1401.12 993 1396C991.381 1395.11 991.381 1395.11 989.729 1394.2C979.298 1388.45 968.873 1382.7 958.454 1376.93C955.407 1375.25 952.36 1373.56 949.312 1371.88C948.712 1371.55 948.112 1371.21 947.493 1370.87C937.831 1365.53 928.12 1360.29 918.388 1355.08C911.346 1351.3 904.377 1347.41 897.438 1343.44C888.477 1338.32 879.379 1333.52 870.199 1328.81C862.61 1324.89 855.193 1320.74 847.808 1316.45C841.501 1312.81 835.099 1309.4 828.625 1306.06C820.924 1302.1 813.333 1297.99 805.812 1293.69C797.299 1288.83 788.713 1284.12 780.062 1279.5C779.473 1279.19 778.884 1278.87 778.278 1278.55C775.33 1276.98 772.383 1275.41 769.435 1273.84C756.606 1266.99 743.826 1260.05 731.135 1252.94C723.638 1248.77 716.055 1244.75 708.481 1240.71C700.507 1236.46 692.595 1232.12 684.75 1227.63C674.913 1222 664.93 1216.68 654.909 1211.4C645.446 1206.41 636.085 1201.28 626.801 1195.96C617.942 1190.91 608.933 1186.16 599.915 1181.4C590.289 1176.32 580.772 1171.1 571.328 1165.68C563.251 1161.08 555.021 1156.8 546.752 1152.55C539.838 1148.99 533.062 1145.27 526.379 1141.29C524.158 1139.84 524.158 1139.84 522 1140Z" fill="black"/>
<path d="M1630.17 1072.51C1655.02 1095.55 1669.51 1123.49 1671.18 1157.76C1671.26 1161.56 1671.27 1165.34 1671.26 1169.13C1671.26 1170.57 1671.27 1172 1671.27 1173.43C1671.28 1177.27 1671.28 1181.11 1671.27 1184.95C1671.26 1189 1671.27 1193.05 1671.27 1197.1C1671.28 1203.9 1671.27 1210.7 1671.26 1217.51C1671.25 1225.32 1671.25 1233.14 1671.26 1240.96C1671.27 1247.72 1671.27 1254.48 1671.27 1261.23C1671.27 1265.25 1671.27 1269.27 1671.27 1273.28C1671.33 1311.15 1667.23 1346.61 1641 1376C1640.29 1376.83 1639.58 1377.66 1638.86 1378.51C1597.63 1425.9 1532.03 1444.41 1471.94 1452.25C1470.69 1452.41 1469.44 1452.58 1468.16 1452.74C1452.91 1454.64 1437.78 1455.21 1422.44 1455.19C1421.59 1455.19 1420.75 1455.19 1419.88 1455.19C1384.35 1455.12 1349.54 1451.6 1315 1443C1314.09 1442.78 1313.18 1442.55 1312.24 1442.32C1282.37 1434.84 1252.93 1422.2 1228 1404C1227.45 1403.6 1226.9 1403.2 1226.34 1402.79C1196.23 1380.64 1173.9 1354 1168 1316C1165.8 1299.2 1165.7 1282.41 1165.73 1265.5C1165.73 1262.8 1165.73 1260.11 1165.73 1257.41C1165.73 1251.8 1165.73 1246.18 1165.74 1240.57C1165.75 1234.15 1165.75 1227.72 1165.74 1221.3C1165.73 1215.71 1165.73 1210.12 1165.73 1204.54C1165.73 1201.23 1165.73 1197.92 1165.73 1194.62C1165.66 1148.63 1171.43 1109.5 1204 1075C1204.62 1074.32 1205.25 1073.65 1205.89 1072.95C1211.67 1066.89 1218.24 1061.91 1225 1057C1226.6 1055.83 1226.6 1055.83 1228.22 1054.63C1308.14 997.79 1489.5 973 1630.17 1072.51ZM1266.91 1142.03C1262.42 1146.82 1258.01 1152.41 1258 1159.25C1260.05 1171.45 1270.29 1180.49 1279.81 1187.38C1318.79 1213.91 1368.79 1222.25 1415.13 1222.19C1416.53 1222.19 1416.53 1222.19 1417.96 1222.18C1472.62 1222.07 1531.94 1213.03 1572.63 1173.41C1577.07 1168.62 1578.95 1162.94 1579.06 1156.5C1573.66 1138.72 1555.02 1129.07 1539.75 1120.88C1464.62 1081.67 1331.51 1079.47 1266.91 1142.03ZM1258 1279C1257.91 1282.5 1257.86 1286 1257.81 1289.5C1257.79 1290.48 1257.76 1291.46 1257.74 1292.48C1257.65 1301.43 1259.57 1307.71 1265 1315C1265.36 1315.52 1265.72 1316.04 1266.1 1316.57C1286.99 1343.99 1333.95 1355.84 1366 1361C1366.88 1361.15 1367.75 1361.3 1368.66 1361.45C1399.76 1366.57 1433.94 1366.2 1465 1361C1466.24 1360.8 1467.47 1360.59 1468.75 1360.38C1505.28 1354.25 1553 1343.24 1576 1311C1579.73 1304.53 1579.35 1298.39 1579.19 1291.06C1579.17 1289.32 1579.17 1289.32 1579.15 1287.54C1579.11 1284.7 1579.06 1281.85 1579 1279C1578.12 1279.38 1578.12 1279.38 1577.23 1279.78C1501.95 1312.43 1420.28 1320.17 1340 1304C1338.92 1303.79 1337.85 1303.57 1336.74 1303.35C1309.75 1297.83 1283.6 1289.08 1258 1279Z" fill="black"/>
</svg>
